<svg width="25" height="25" viewBox="0 0 25 25" fill="none" xmlns="http://www.w3.org/2000/svg">
<g clip-path="url(#clip0_1_77)">
<path d="M12.5786 2.5C14.9656 2.5 17.2547 3.44821 18.9426 5.13604C20.6304 6.82387 21.5786 9.11305 21.5786 11.5C21.5786 14.574 19.9026 17.09 18.1366 18.895C17.2541 19.7869 16.2914 20.5956 15.2606 21.311L14.8346 21.601L14.6346 21.734L14.2576 21.974L13.9216 22.179L13.5056 22.421C13.2231 22.5818 12.9037 22.6663 12.5786 22.6663C12.2536 22.6663 11.9341 22.5818 11.6516 22.421L11.2356 22.179L10.7156 21.859L10.5236 21.734L10.1136 21.461C9.00159 20.7083 7.96568 19.8489 7.02061 18.895C5.25461 17.089 3.57861 14.574 3.57861 11.5C3.57861 9.11305 4.52682 6.82387 6.21465 5.13604C7.90248 3.44821 10.1917 2.5 12.5786 2.5ZM12.5786 8.5C12.1846 8.5 11.7945 8.5776 11.4306 8.72836C11.0666 8.87913 10.7359 9.1001 10.4573 9.37868C10.1787 9.65726 9.95774 9.98797 9.80697 10.3519C9.65621 10.7159 9.57861 11.106 9.57861 11.5C9.57861 11.894 9.65621 12.2841 9.80697 12.6481C9.95774 13.012 10.1787 13.3427 10.4573 13.6213C10.7359 13.8999 11.0666 14.1209 11.4306 14.2716C11.7945 14.4224 12.1846 14.5 12.5786 14.5C13.3743 14.5 14.1373 14.1839 14.6999 13.6213C15.2625 13.0587 15.5786 12.2956 15.5786 11.5C15.5786 10.7044 15.2625 9.94129 14.6999 9.37868C14.1373 8.81607 13.3743 8.5 12.5786 8.5Z" fill="#FF0000"/>
</g>
<defs>
<clipPath id="clip0_1_77">
<rect width="24" height="24" fill="white" transform="translate(0.578613 0.5)"/>
</clipPath>
</defs>
</svg>
