<svg width="27" height="29" viewBox="0 0 27 29" fill="none" xmlns="http://www.w3.org/2000/svg">
<path d="M5.89225 12.6178C8.00596 17.02 11.4114 20.6289 15.5654 22.8689L18.7947 19.4467C19.2057 19.0111 19.7782 18.8867 20.2919 19.0578C21.9359 19.6333 23.6973 19.9444 25.5322 19.9444C25.9215 19.9444 26.2948 20.1083 26.5701 20.4001C26.8454 20.6918 27 21.0874 27 21.5V26.9444C27 27.357 26.8454 27.7527 26.5701 28.0444C26.2948 28.3361 25.9215 28.5 25.5322 28.5C18.9141 28.5 12.567 25.7139 7.88734 20.7546C3.20764 15.7953 0.578613 9.06906 0.578613 2.05556C0.578613 1.643 0.733262 1.24733 1.00854 0.955612C1.28381 0.663888 1.65717 0.5 2.04647 0.5H7.18396C7.57326 0.5 7.94662 0.663888 8.22189 0.955612C8.49717 1.24733 8.65182 1.643 8.65182 2.05556C8.65182 4 8.94539 5.86667 9.4885 7.60889C9.64996 8.15333 9.53253 8.76 9.12153 9.19556L5.89225 12.6178Z" fill="#FF0000"/>
</svg>
